<?xml version="1.0" encoding="UTF-8"?>
<svg xmlns="http://www.w3.org/2000/svg" xmlns:xlink="http://www.w3.org/1999/xlink" width="228pt" height="273pt" viewBox="0 0 228 273" version="1.1">
<g id="surface1">
<path style=" stroke:none;fill-rule:nonzero;fill:rgb(44.313725%,43.921569%,44.313725%);fill-opacity:1;" d="M 72.214844 245.046875 C 73.359375 245.046875 74.277344 244.132812 74.277344 242.988281 C 74.277344 241.871094 73.359375 240.929688 72.214844 240.929688 L 48.523438 240.929688 C 48.398438 239.742188 47.402344 238.769531 46.167969 238.769531 C 44.941406 238.769531 43.945312 239.742188 43.832031 240.929688 L 41.03125 240.929688 C 39.898438 240.929688 38.96875 241.871094 38.96875 242.988281 C 38.96875 244.132812 39.898438 245.046875 41.03125 245.046875 L 43.105469 245.046875 C 42.402344 246.539062 41.03125 247.921875 38.378906 248.25 C 37.019531 248.351562 36.035156 249.289062 36.035156 250.589844 C 36.035156 251.902344 37.109375 253.101562 38.378906 252.941406 C 39.707031 252.816406 40.839844 252.546875 41.835938 252.183594 L 41.835938 270.300781 C 41.835938 271.570312 42.902344 272.632812 44.183594 272.632812 C 45.476562 272.632812 46.539062 271.570312 46.539062 270.300781 L 46.539062 266.082031 L 64.972656 266.082031 C 66.117188 266.082031 67 265.167969 67 264.046875 C 67 262.960938 66.117188 262.089844 64.972656 262.089844 L 46.539062 262.089844 L 46.539062 258.96875 L 64.972656 258.96875 C 66.117188 258.96875 67 258.109375 67 257.011719 C 67 255.894531 66.117188 255 64.972656 255 L 46.539062 255 L 46.539062 252.035156 L 68.757812 252.027344 L 68.746094 267.554688 L 67.566406 268.71875 L 64.175781 268.730469 C 63.066406 268.730469 62.171875 269.636719 62.171875 270.710938 C 62.171875 271.816406 63.066406 272.710938 64.175781 272.710938 L 69.9375 272.6875 C 71.886719 272.6875 73.449219 271.105469 73.449219 269.160156 L 73.449219 250.214844 C 73.449219 248.914062 72.417969 247.863281 71.113281 247.863281 L 46.992188 247.921875 C 47.550781 246.949219 47.914062 245.964844 48.140625 245.046875 Z M 72.214844 245.046875 "/>
<path style=" stroke:none;fill-rule:nonzero;fill:rgb(44.313725%,43.921569%,44.313725%);fill-opacity:1;" d="M 80.957031 262.167969 C 79.992188 262.167969 79.199219 262.980469 79.199219 263.976562 L 79.199219 269.878906 C 79.199219 270.886719 79.992188 271.710938 80.957031 271.710938 C 81.933594 271.710938 82.714844 270.886719 82.714844 269.878906 L 82.714844 263.976562 C 82.714844 262.980469 81.933594 262.167969 80.957031 262.167969 "/>
<path style=" stroke:none;fill-rule:nonzero;fill:rgb(44.313725%,43.921569%,44.313725%);fill-opacity:1;" d="M 90.292969 262.167969 C 89.320312 262.167969 88.546875 262.980469 88.546875 263.976562 L 88.546875 269.878906 C 88.546875 270.886719 89.320312 271.710938 90.292969 271.710938 C 91.292969 271.710938 92.0625 270.886719 92.0625 269.878906 L 92.0625 263.976562 C 92.0625 262.980469 91.292969 262.167969 90.292969 262.167969 "/>
<path style=" stroke:none;fill-rule:nonzero;fill:rgb(44.313725%,43.921569%,44.313725%);fill-opacity:1;" d="M 100.097656 264.535156 L 100.085938 260.203125 C 100.085938 259.335938 99.371094 258.609375 98.523438 258.609375 L 94.339844 258.609375 C 93.480469 258.609375 92.765625 259.335938 92.765625 260.203125 C 92.765625 261.074219 93.480469 261.777344 94.339844 261.777344 L 95.792969 261.777344 L 95.792969 263.800781 C 95.792969 263.800781 95.734375 266.007812 93.921875 266.890625 C 92.980469 267.332031 92.71875 268.019531 92.71875 268.925781 C 92.71875 270.203125 93.761719 271.4375 95.054688 271.300781 L 96.449219 270.8125 C 99.972656 268.925781 100.097656 264.535156 100.097656 264.535156 "/>
<path style=" stroke:none;fill-rule:nonzero;fill:rgb(44.313725%,43.921569%,44.313725%);fill-opacity:1;" d="M 112.308594 266.886719 C 110.484375 266.015625 110.4375 263.789062 110.4375 263.789062 L 110.4375 261.773438 L 111.890625 261.773438 C 112.761719 261.773438 113.441406 261.074219 113.441406 260.203125 C 113.441406 259.332031 112.761719 258.609375 111.890625 258.609375 L 107.71875 258.609375 C 106.84375 258.609375 106.164062 259.332031 106.164062 260.203125 L 106.132812 264.535156 C 106.132812 264.535156 106.253906 268.921875 109.78125 270.8125 L 111.164062 271.296875 C 112.445312 271.433594 113.523438 270.210938 113.523438 268.921875 C 113.523438 268.007812 113.25 267.339844 112.308594 266.886719 "/>
<path style=" stroke:none;fill-rule:nonzero;fill:rgb(44.313725%,43.921569%,44.313725%);fill-opacity:1;" d="M 109.605469 257.71875 C 111.578125 257.71875 113.144531 256.144531 113.144531 254.175781 L 113.144531 244.519531 C 113.144531 242.585938 111.578125 240.988281 109.605469 240.988281 L 105.34375 240.988281 C 105.332031 239.6875 104.289062 238.636719 103.019531 238.636719 C 101.75 238.636719 100.707031 239.699219 100.695312 240.988281 L 96.175781 241.023438 C 94.226562 241.023438 92.636719 242.59375 92.636719 244.539062 L 92.636719 254.15625 C 92.636719 256.121094 94.226562 257.707031 96.175781 257.707031 L 100.96875 257.707031 L 100.957031 267.996094 L 99.925781 269.0625 L 99.621094 269.0625 C 98.644531 269.0625 97.863281 269.820312 97.863281 270.792969 C 97.863281 271.785156 98.644531 272.566406 99.621094 272.566406 L 102.148438 272.625 C 103.871094 272.625 105.289062 271.199219 105.289062 269.46875 L 105.289062 257.71875 Z M 97.355469 252.546875 L 97.355469 251.269531 L 105.082031 251.269531 C 106.195312 251.269531 107.113281 250.367188 107.113281 249.269531 C 107.113281 248.183594 106.195312 247.242188 105.082031 247.242188 L 97.355469 247.242188 L 97.355469 246.148438 L 98.53125 244.980469 L 107.261719 244.96875 L 108.4375 246.125 L 108.4375 252.570312 L 107.261719 253.746094 L 98.53125 253.734375 Z M 97.355469 252.546875 "/>
<path style=" stroke:none;fill-rule:nonzero;fill:rgb(44.313725%,43.921569%,44.313725%);fill-opacity:1;" d="M 90.121094 253.015625 C 88.804688 253.015625 87.761719 254.054688 87.761719 255.378906 L 87.761719 256.882812 L 86.921875 257.695312 L 85.3125 257.695312 L 84.792969 257.210938 L 84.941406 256.882812 L 91.296875 248.898438 C 92.125 247.878906 91.988281 246.410156 90.980469 245.574219 C 89.996094 244.734375 88.5 244.894531 87.671875 245.878906 L 85.972656 248.015625 L 85.019531 248.015625 L 84.53125 247.527344 L 84.679688 247.191406 L 88.363281 242.574219 C 89.191406 241.589844 89.054688 240.074219 88.035156 239.25 C 87.023438 238.4375 85.5625 238.582031 84.734375 239.566406 L 79.226562 246.386719 C 78.726562 246.996094 78.421875 247.765625 78.421875 248.601562 C 78.421875 250.503906 79.964844 252.019531 81.867188 252.019531 L 82.761719 252.019531 L 79.519531 256.089844 C 79.011719 256.691406 78.707031 257.4375 78.707031 258.296875 C 78.707031 260.183594 80.234375 261.722656 82.128906 261.722656 L 83.5 261.722656 L 83.5 270.5 C 83.5 271.710938 84.464844 272.660156 85.664062 272.660156 C 86.832031 272.660156 87.808594 271.710938 87.808594 270.5 L 87.808594 261.722656 L 89.316406 261.722656 C 91.046875 261.722656 92.441406 260.320312 92.441406 258.613281 L 92.464844 255.378906 C 92.464844 254.054688 91.421875 253.015625 90.121094 253.015625 "/>
<path style=" stroke:none;fill-rule:nonzero;fill:rgb(44.313725%,43.921569%,44.313725%);fill-opacity:1;" d="M 150.078125 243.53125 L 136.871094 243.53125 L 136.871094 242.289062 L 150.609375 242.289062 C 151.550781 242.289062 152.308594 241.554688 152.308594 240.613281 C 152.308594 239.664062 151.550781 238.90625 150.609375 238.90625 L 118.972656 238.90625 C 118.046875 238.90625 117.285156 239.664062 117.285156 240.613281 C 117.285156 241.554688 118.046875 242.289062 118.972656 242.289062 L 132.15625 242.289062 L 132.15625 243.53125 L 119.542969 243.53125 C 118.226562 243.53125 117.183594 244.597656 117.183594 245.886719 L 117.183594 252.027344 C 117.183594 253.328125 118.226562 254.378906 119.542969 254.378906 C 120.820312 254.378906 121.886719 253.328125 121.886719 252.027344 L 121.886719 246.9375 L 132.15625 246.9375 L 132.15625 252.027344 C 132.15625 253.328125 133.222656 254.378906 134.527344 254.378906 C 135.816406 254.378906 136.871094 253.328125 136.871094 252.027344 L 136.871094 246.9375 L 147.71875 246.9375 L 147.71875 252.027344 C 147.71875 253.328125 148.785156 254.378906 150.078125 254.378906 C 151.359375 254.378906 152.421875 253.328125 152.421875 252.027344 L 152.421875 245.886719 C 152.421875 244.597656 151.359375 243.53125 150.078125 243.53125 "/>
<path style=" stroke:none;fill-rule:nonzero;fill:rgb(44.313725%,43.921569%,44.313725%);fill-opacity:1;" d="M 139.5625 250.644531 L 145.453125 250.644531 C 146.226562 250.644531 146.871094 250.011719 146.871094 249.195312 C 146.871094 248.402344 146.226562 247.792969 145.453125 247.792969 L 139.5625 247.792969 C 138.765625 247.792969 138.132812 248.402344 138.132812 249.195312 C 138.132812 250.011719 138.765625 250.644531 139.5625 250.644531 "/>
<path style=" stroke:none;fill-rule:nonzero;fill:rgb(44.313725%,43.921569%,44.313725%);fill-opacity:1;" d="M 139.5625 254.316406 L 145.453125 254.316406 C 146.226562 254.316406 146.871094 253.695312 146.871094 252.914062 C 146.871094 252.121094 146.226562 251.5 145.453125 251.5 L 139.5625 251.5 C 138.765625 251.5 138.132812 252.121094 138.132812 252.914062 C 138.132812 253.695312 138.765625 254.316406 139.5625 254.316406 "/>
<path style=" stroke:none;fill-rule:nonzero;fill:rgb(44.313725%,43.921569%,44.313725%);fill-opacity:1;" d="M 124.121094 250.644531 L 130.011719 250.644531 C 130.796875 250.644531 131.441406 250.011719 131.441406 249.195312 C 131.441406 248.402344 130.796875 247.792969 130.011719 247.792969 L 124.121094 247.792969 C 123.335938 247.792969 122.679688 248.402344 122.679688 249.195312 C 122.679688 250.011719 123.335938 250.644531 124.121094 250.644531 "/>
<path style=" stroke:none;fill-rule:nonzero;fill:rgb(44.313725%,43.921569%,44.313725%);fill-opacity:1;" d="M 124.121094 254.316406 L 130.011719 254.316406 C 130.796875 254.316406 131.441406 253.695312 131.441406 252.914062 C 131.441406 252.121094 130.796875 251.5 130.011719 251.5 L 124.121094 251.5 C 123.335938 251.5 122.679688 252.121094 122.679688 252.914062 C 122.679688 253.695312 123.335938 254.316406 124.121094 254.316406 "/>
<path style=" stroke:none;fill-rule:nonzero;fill:rgb(44.313725%,43.921569%,44.313725%);fill-opacity:1;" d="M 150.847656 269.746094 L 137.484375 269.769531 L 136.859375 269.136719 L 136.859375 268.378906 L 147.730469 268.378906 C 149.679688 268.378906 151.253906 266.792969 151.253906 264.871094 L 151.253906 258.765625 C 151.253906 256.820312 149.679688 255.246094 147.730469 255.246094 L 121.320312 255.269531 C 119.371094 255.269531 117.773438 256.839844 117.773438 258.796875 L 117.773438 264.871094 C 117.773438 266.792969 119.371094 268.378906 121.320312 268.378906 L 132.15625 268.378906 L 132.15625 269.566406 C 132.15625 271.238281 133.515625 272.539062 135.171875 272.539062 L 150.847656 272.597656 C 151.652344 272.597656 152.273438 271.953125 152.273438 271.183594 C 152.273438 270.402344 151.652344 269.746094 150.847656 269.746094 M 146.664062 264.769531 L 136.871094 264.769531 L 136.871094 263.199219 L 144.386719 263.199219 C 145.167969 263.199219 145.804688 262.554688 145.804688 261.773438 C 145.804688 260.957031 145.167969 260.347656 144.386719 260.347656 L 136.871094 260.347656 L 136.871094 259.046875 L 136.859375 258.796875 L 146.664062 258.796875 Z M 132.203125 258.796875 L 132.15625 259.046875 L 132.15625 260.347656 L 122.375 260.347656 L 122.375 258.796875 Z M 122.375 263.199219 L 132.15625 263.199219 L 132.15625 264.769531 L 122.375 264.769531 Z M 122.375 263.199219 "/>
<path style=" stroke:none;fill-rule:nonzero;fill:rgb(44.313725%,43.921569%,44.313725%);fill-opacity:1;" d="M 158.578125 249.1875 C 157.601562 249.1875 156.820312 249.96875 156.820312 250.917969 L 156.820312 267.757812 C 156.820312 268.753906 157.601562 269.511719 158.578125 269.511719 C 159.527344 269.511719 160.332031 268.753906 160.332031 267.757812 L 160.332031 250.917969 C 160.332031 249.96875 159.527344 249.1875 158.578125 249.1875 "/>
<path style=" stroke:none;fill-rule:nonzero;fill:rgb(44.313725%,43.921569%,44.313725%);fill-opacity:1;" d="M 171.097656 250.914062 C 171.097656 249.964844 170.304688 249.183594 169.351562 249.183594 C 168.390625 249.183594 167.605469 249.964844 167.605469 250.914062 L 167.605469 267.753906 C 167.605469 268.75 168.390625 269.507812 169.351562 269.507812 C 170.304688 269.507812 171.097656 268.75 171.097656 267.753906 Z M 171.097656 250.914062 "/>
<path style=" stroke:none;fill-rule:nonzero;fill:rgb(44.313725%,43.921569%,44.313725%);fill-opacity:1;" d="M 158.394531 243.007812 L 168.753906 243.007812 C 169.648438 243.007812 170.375 242.292969 170.375 241.402344 C 170.375 240.496094 169.648438 239.761719 168.753906 239.761719 L 158.394531 239.761719 C 157.484375 239.761719 156.773438 240.496094 156.773438 241.402344 C 156.773438 242.292969 157.484375 243.007812 158.394531 243.007812 "/>
<path style=" stroke:none;fill-rule:nonzero;fill:rgb(44.313725%,43.921569%,44.313725%);fill-opacity:1;" d="M 169.296875 247.824219 C 170.292969 247.824219 171.085938 247.089844 171.085938 246.21875 C 171.085938 245.316406 170.292969 244.582031 169.296875 244.582031 L 157.859375 244.582031 C 156.839844 244.582031 156.046875 245.316406 156.046875 246.21875 C 156.046875 247.089844 156.839844 247.824219 157.859375 247.824219 L 161.601562 247.824219 L 161.601562 270.207031 C 161.601562 271.53125 162.644531 272.5625 163.933594 272.5625 C 165.226562 272.5625 166.292969 271.53125 166.292969 270.207031 L 166.292969 247.824219 Z M 169.296875 247.824219 "/>
<path style=" stroke:none;fill-rule:nonzero;fill:rgb(44.313725%,43.921569%,44.313725%);fill-opacity:1;" d="M 190.949219 264.515625 C 189.667969 264.515625 188.589844 265.558594 188.589844 266.882812 L 188.613281 268.78125 L 188.078125 269.3125 L 187.21875 269.3125 L 186.695312 268.78125 L 186.695312 264.730469 L 187.605469 264.730469 C 189.585938 264.730469 191.164062 263.160156 191.164062 261.191406 L 191.164062 242.417969 C 191.164062 240.507812 189.585938 238.910156 187.605469 238.910156 L 175.429688 238.945312 C 173.480469 238.945312 171.894531 240.519531 171.894531 242.464844 L 171.894531 261.179688 C 171.894531 263.113281 173.480469 264.710938 175.429688 264.710938 L 176.15625 264.710938 L 176.15625 265.703125 C 176.03125 268.679688 172.359375 268.679688 172.359375 268.679688 C 171.394531 268.882812 171.257812 269.449219 171.03125 270.285156 C 170.703125 271.449219 171.382812 272.832031 172.617188 273 L 174.003906 272.933594 C 180.214844 272.105469 180.542969 266.394531 180.542969 266.394531 L 180.519531 264.730469 L 181.980469 264.730469 L 181.980469 269.84375 C 181.980469 271.347656 183.207031 272.59375 184.714844 272.59375 L 190.527344 272.558594 C 192.058594 272.558594 193.292969 271.335938 193.292969 269.820312 L 193.304688 266.882812 C 193.304688 265.558594 192.261719 264.515625 190.949219 264.515625 M 186.5625 242.464844 L 186.5625 261.136719 L 176.496094 261.136719 L 176.496094 257.246094 L 183.238281 257.246094 C 184.148438 257.246094 184.871094 256.511719 184.871094 255.617188 C 184.871094 254.734375 184.148438 254 183.238281 254 L 176.496094 254 L 176.496094 250.1875 L 183.238281 250.1875 C 184.148438 250.1875 184.871094 249.496094 184.871094 248.605469 C 184.871094 247.6875 184.148438 246.953125 183.238281 246.953125 L 176.496094 246.953125 L 176.496094 242.464844 Z M 186.5625 242.464844 "/>
<path style=" stroke:none;fill-rule:nonzero;fill:rgb(44.313725%,43.921569%,44.313725%);fill-opacity:1;" d="M 137.574219 183.550781 C 139.863281 183.550781 141.734375 181.695312 141.734375 179.410156 C 141.734375 177.105469 139.863281 175.25 137.574219 175.25 L 122.125 175.25 C 120.050781 175.25 118.375 176.96875 118.375 179.050781 L 118.375 221.519531 C 118.375 223.609375 120.050781 225.285156 122.125 225.285156 L 122.792969 225.226562 L 137.574219 225.226562 C 139.863281 225.226562 141.734375 223.382812 141.734375 221.089844 C 141.734375 218.792969 139.863281 216.949219 137.574219 216.949219 L 125.933594 216.949219 L 125.933594 203.140625 L 137.574219 203.140625 C 139.863281 203.140625 141.734375 201.285156 141.734375 199 C 141.734375 196.703125 139.863281 194.859375 137.574219 194.859375 L 125.933594 194.859375 L 125.933594 183.550781 Z M 137.574219 183.550781 "/>
<path style=" stroke:none;fill-rule:nonzero;fill:rgb(44.313725%,43.921569%,44.313725%);fill-opacity:1;" d="M 113.292969 217.027344 L 102.21875 217.027344 L 102.21875 179.050781 C 102.21875 176.96875 100.539062 175.261719 98.445312 175.261719 C 96.359375 175.261719 94.65625 176.96875 94.65625 179.050781 L 94.65625 221.519531 C 94.65625 223.613281 96.359375 225.285156 98.445312 225.285156 L 98.445312 225.308594 L 113.292969 225.308594 C 115.570312 225.308594 117.441406 223.453125 117.441406 221.167969 C 117.441406 218.882812 115.570312 217.027344 113.292969 217.027344 "/>
<path style=" stroke:none;fill-rule:nonzero;fill:rgb(44.313725%,43.921569%,44.313725%);fill-opacity:1;" d="M 223.820312 175.625 C 221.871094 174.910156 219.671875 175.847656 218.925781 177.804688 L 206.386719 210.886719 L 193.863281 177.804688 C 193.285156 176.28125 191.8125 175.375 190.269531 175.375 L 190.269531 175.214844 L 159.800781 175.214844 C 157.511719 175.214844 155.644531 177.070312 155.644531 179.355469 C 155.644531 181.640625 157.511719 183.496094 159.800781 183.496094 L 170.433594 183.496094 L 170.433594 221.453125 C 170.433594 223.53125 172.125 225.230469 174.210938 225.230469 C 176.292969 225.230469 177.984375 223.53125 177.984375 221.453125 L 177.984375 183.496094 L 187.945312 183.496094 L 202.851562 222.855469 C 203.351562 224.144531 204.496094 225.015625 205.789062 225.230469 L 206.09375 225.261719 L 206.160156 225.261719 L 206.386719 225.285156 L 206.605469 225.261719 L 206.707031 225.261719 L 207 225.230469 C 208.292969 225.015625 209.4375 224.144531 209.9375 222.855469 L 225.988281 180.5 C 226.722656 178.574219 225.75 176.382812 223.820312 175.625 "/>
<path style=" stroke:none;fill-rule:nonzero;fill:rgb(44.313725%,43.921569%,44.313725%);fill-opacity:1;" d="M 46.578125 202.515625 C 43.890625 202.515625 41.738281 204.675781 41.738281 207.332031 C 41.738281 210.035156 43.890625 212.195312 46.578125 212.195312 C 49.273438 212.195312 51.429688 210.035156 51.429688 207.332031 C 51.429688 204.675781 49.273438 202.515625 46.578125 202.515625 "/>
<path style=" stroke:none;fill-rule:nonzero;fill:rgb(44.313725%,43.921569%,44.313725%);fill-opacity:1;" d="M 86.710938 196.6875 C 89.171875 194.503906 90.441406 192.433594 90.441406 188.699219 C 90.441406 181.089844 81.53125 175.253906 69.945312 175.253906 L 69.121094 175.277344 L 69.128906 175.320312 L 68.519531 175.253906 C 66.421875 175.253906 64.734375 176.972656 64.734375 179.042969 L 64.734375 214.738281 L 49.929688 177.664062 C 49.363281 176.28125 48.09375 175.445312 46.722656 175.332031 L 46.6875 175.332031 L 46.40625 175.320312 L 46.15625 175.332031 L 46.085938 175.332031 C 44.714844 175.445312 43.445312 176.28125 42.890625 177.664062 L 26.796875 217.519531 C 17.375 216.625 10.03125 209.207031 10.03125 200.167969 C 10.03125 190.535156 18.351562 182.742188 28.621094 182.742188 C 30.75 182.558594 32.292969 181.179688 32.40625 178.984375 C 32.496094 176.894531 30.683594 175.117188 28.621094 175.21875 C 13.792969 175.21875 1.769531 186.449219 1.769531 200.339844 C 1.769531 213.957031 13.761719 224.90625 28.234375 225.289062 C 30.039062 225.753906 31.953125 224.824219 32.679688 223.050781 L 46.382812 189.140625 L 58.984375 220.640625 L 59.257812 221.351562 L 59.417969 221.761719 L 59.441406 221.761719 C 60.585938 223.886719 62.851562 225.324219 65.46875 225.324219 C 69.234375 225.324219 72.292969 222.257812 72.292969 218.503906 L 72.292969 183.703125 L 72.359375 183.703125 C 77.53125 183.703125 81.679688 186.144531 81.679688 189.210938 C 81.679688 191.054688 80.101562 192.625 77.734375 193.632812 C 76.238281 194.253906 75.207031 195.734375 75.207031 197.445312 C 75.207031 199.378906 76.519531 201.007812 78.335938 201.457031 C 82.425781 202.476562 85.386719 205.859375 85.386719 209.894531 C 85.386719 213.605469 82.597656 216.546875 79.445312 217.925781 C 78.015625 218.527344 77.019531 219.929688 77.019531 221.578125 C 77.019531 223.75 78.800781 225.515625 81 225.515625 C 86.824219 225.515625 90.816406 219.53125 90.816406 219.53125 C 99.554688 204.75 86.710938 196.6875 86.710938 196.6875 "/>
<path style=" stroke:none;fill-rule:nonzero;fill:rgb(89.803922%,0%,12.54902%);fill-opacity:1;" d="M 145.714844 117.234375 C 169.867188 117.234375 189.445312 97.859375 189.445312 73.996094 C 189.445312 50.167969 169.867188 30.804688 145.714844 30.804688 C 121.570312 30.804688 101.984375 50.167969 101.984375 73.996094 C 101.984375 97.859375 121.570312 117.234375 145.714844 117.234375 "/>
<path style=" stroke:none;fill-rule:nonzero;fill:rgb(89.803922%,0%,12.54902%);fill-opacity:1;" d="M 97.433594 74 C 97.433594 47.683594 119.058594 26.296875 145.71875 26.296875 C 157.402344 26.296875 168.105469 30.402344 176.457031 37.222656 C 165.699219 24.292969 149.402344 16.058594 131.128906 16.058594 C 98.746094 16.058594 72.496094 41.992188 72.496094 74 C 72.496094 106.007812 98.746094 131.941406 131.128906 131.941406 C 149.402344 131.941406 165.699219 123.707031 176.457031 110.804688 C 168.105469 117.601562 157.402344 121.707031 145.71875 121.707031 C 119.058594 121.707031 97.433594 100.34375 97.433594 74 "/>
<path style=" stroke:none;fill-rule:nonzero;fill:rgb(89.803922%,0%,12.54902%);fill-opacity:1;" d="M 67.832031 74 C 67.832031 39.359375 96.28125 11.253906 131.339844 11.253906 C 145.441406 11.253906 158.441406 15.800781 168.984375 23.445312 C 155.300781 9.027344 135.839844 0 114.269531 0 C 72.921875 0 39.382812 33.125 39.382812 74 C 39.382812 114.875 72.921875 148.003906 114.269531 148.003906 C 135.839844 148.003906 155.300781 138.988281 168.984375 124.554688 C 158.441406 132.203125 145.441406 136.75 131.339844 136.75 C 96.28125 136.75 67.832031 108.644531 67.832031 74 "/>
</g>
</svg>
